<svg id="mermaid-1574452420569" width="100%" xmlns="http://www.w3.org/2000/svg" height="100%" style="max-width:1050px;" viewBox="-50 -10 1050 706"><style>
:root { --mermaid-font-family: "trebuchet ms", verdana, arial;}</style><style>#mermaid-1574452420569 {
    color: rgba(0, 0, 0, 0.65);
    font: ;
  }</style><g></g><g><line id="actor2129" x1="75" y1="5" x2="75" y2="695" class="actor-line" stroke-width="0.5px" stroke="#999"></line><rect x="0" y="0" fill="#eaeaea" stroke="#666" width="150" height="65" rx="3" ry="3" class="actor"></rect><text x="75" y="32.5" dominant-baseline="central" alignment-baseline="central" class="actor" style="text-anchor: middle; font-size: 14px;"><tspan x="75" dy="0">UI</tspan></text></g><g><line id="actor2130" x1="275" y1="5" x2="275" y2="695" class="actor-line" stroke-width="0.5px" stroke="#999"></line><rect x="200" y="0" fill="#eaeaea" stroke="#666" width="150" height="65" rx="3" ry="3" class="actor"></rect><text x="275" y="32.5" dominant-baseline="central" alignment-baseline="central" class="actor" style="text-anchor: middle; font-size: 14px;"><tspan x="275" dy="0">OrderService</tspan></text></g><g><line id="actor2131" x1="475" y1="5" x2="475" y2="695" class="actor-line" stroke-width="0.5px" stroke="#999"></line><rect x="400" y="0" fill="#eaeaea" stroke="#666" width="150" height="65" rx="3" ry="3" class="actor"></rect><text x="475" y="32.5" dominant-baseline="central" alignment-baseline="central" class="actor" style="text-anchor: middle; font-size: 14px;"><tspan x="475" dy="0">InventoryService</tspan></text></g><g><line id="actor2132" x1="675" y1="5" x2="675" y2="695" class="actor-line" stroke-width="0.5px" stroke="#999"></line><rect x="600" y="0" fill="#eaeaea" stroke="#666" width="150" height="65" rx="3" ry="3" class="actor"></rect><text x="675" y="32.5" dominant-baseline="central" alignment-baseline="central" class="actor" style="text-anchor: middle; font-size: 14px;"><tspan x="675" dy="0">BaristaService</tspan></text></g><g><line id="actor2133" x1="875" y1="5" x2="875" y2="695" class="actor-line" stroke-width="0.5px" stroke="#999"></line><rect x="800" y="0" fill="#eaeaea" stroke="#666" width="150" height="65" rx="3" ry="3" class="actor"></rect><text x="875" y="32.5" dominant-baseline="central" alignment-baseline="central" class="actor" style="text-anchor: middle; font-size: 14px;"><tspan x="875" dy="0">Broker</tspan></text></g><defs><marker id="arrowhead" refX="5" refY="2" markerWidth="6" markerHeight="4" orient="auto"><path d="M 0,0 V 4 L6,2 Z"></path></marker></defs><defs><marker id="crosshead" markerWidth="15" markerHeight="8" orient="auto" refX="16" refY="4"><path fill="black" stroke="#000000" stroke-width="1px" d="M 9,2 V 6 L16,4 Z" style="stroke-dasharray: 0, 0;"></path><path fill="none" stroke="#000000" stroke-width="1px" d="M 0,1 L 6,7 M 6,1 L 0,7" style="stroke-dasharray: 0, 0;"></path></marker></defs><defs><marker id="sequencenumber" refX="15" refY="15" markerWidth="60" markerHeight="40" orient="auto"><circle cx="15" cy="15" r="6"></circle></marker></defs><g><text x="175" y="93" class="messageText" style="text-anchor: middle;">POST /orders</text><line x1="75" y1="100" x2="275" y2="100" class="messageLine0" stroke-width="2" stroke="black" marker-end="url(#arrowhead)" style="fill: none;"></line></g><g><text x="575" y="128" class="messageText" style="text-anchor: middle;">order-received (id, type)</text><line x1="275" y1="135" x2="875" y2="135" class="messageLine0" stroke-width="2" stroke="black" marker-end="url(#arrowhead)" style="fill: none;"></line></g><g><text x="675" y="163" class="messageText" style="text-anchor: middle;">.</text><line x1="875" y1="170" x2="475" y2="170" class="messageLine1" stroke-width="2" stroke="black" marker-end="url(#arrowhead)" style="stroke-dasharray: 3, 3; fill: none;"></line></g><g><text x="475" y="198" class="messageText" style="text-anchor: middle;">checkInventory()</text><path d="M 475,205 C 535,195 535,235 475,225" class="messageLine0" stroke-width="2" stroke="black" marker-end="url(#arrowhead)" style="fill: none;"></path></g><g><text x="475" y="263" class="messageText" style="text-anchor: middle;">allocateBeansForOrder(id)</text><path d="M 475,270 C 535,260 535,300 475,290" class="messageLine0" stroke-width="2" stroke="black" marker-end="url(#arrowhead)" style="fill: none;"></path></g><g><text x="675" y="328" class="messageText" style="text-anchor: middle;">beans-allocated (id)</text><line x1="475" y1="335" x2="875" y2="335" class="messageLine0" stroke-width="2" stroke="black" marker-end="url(#arrowhead)" style="fill: none;"></line></g><g><text x="775" y="363" class="messageText" style="text-anchor: middle;">.</text><line x1="875" y1="370" x2="675" y2="370" class="messageLine1" stroke-width="2" stroke="black" marker-end="url(#arrowhead)" style="stroke-dasharray: 3, 3; fill: none;"></line></g><g><text x="575" y="398" class="messageText" style="text-anchor: middle;">.</text><line x1="875" y1="405" x2="275" y2="405" class="messageLine1" stroke-width="2" stroke="black" marker-end="url(#arrowhead)" style="stroke-dasharray: 3, 3; fill: none;"></line></g><g><text x="175" y="433" class="messageText" style="text-anchor: middle;">SSE</text><line x1="275" y1="440" x2="75" y2="440" class="messageLine0" stroke-width="2" stroke="black" marker-end="url(#arrowhead)" style="fill: none;"></line></g><g><text x="675" y="468" class="messageText" style="text-anchor: middle;">prepareOrder(id)</text><path d="M 675,475 C 735,465 735,505 675,495" class="messageLine0" stroke-width="2" stroke="black" marker-end="url(#arrowhead)" style="fill: none;"></path></g><g><text x="775" y="533" class="messageText" style="text-anchor: middle;">order-finished (id)</text><line x1="675" y1="540" x2="875" y2="540" class="messageLine0" stroke-width="2" stroke="black" marker-end="url(#arrowhead)" style="fill: none;"></line></g><g><text x="575" y="568" class="messageText" style="text-anchor: middle;">.</text><line x1="875" y1="575" x2="275" y2="575" class="messageLine1" stroke-width="2" stroke="black" marker-end="url(#arrowhead)" style="stroke-dasharray: 3, 3; fill: none;"></line></g><g><text x="175" y="603" class="messageText" style="text-anchor: middle;">SSE</text><line x1="275" y1="610" x2="75" y2="610" class="messageLine0" stroke-width="2" stroke="black" marker-end="url(#arrowhead)" style="fill: none;"></line></g><g><rect x="0" y="630" fill="#eaeaea" stroke="#666" width="150" height="65" rx="3" ry="3" class="actor"></rect><text x="75" y="662.5" dominant-baseline="central" alignment-baseline="central" class="actor" style="text-anchor: middle; font-size: 14px;"><tspan x="75" dy="0">UI</tspan></text></g><g><rect x="200" y="630" fill="#eaeaea" stroke="#666" width="150" height="65" rx="3" ry="3" class="actor"></rect><text x="275" y="662.5" dominant-baseline="central" alignment-baseline="central" class="actor" style="text-anchor: middle; font-size: 14px;"><tspan x="275" dy="0">OrderService</tspan></text></g><g><rect x="400" y="630" fill="#eaeaea" stroke="#666" width="150" height="65" rx="3" ry="3" class="actor"></rect><text x="475" y="662.5" dominant-baseline="central" alignment-baseline="central" class="actor" style="text-anchor: middle; font-size: 14px;"><tspan x="475" dy="0">InventoryService</tspan></text></g><g><rect x="600" y="630" fill="#eaeaea" stroke="#666" width="150" height="65" rx="3" ry="3" class="actor"></rect><text x="675" y="662.5" dominant-baseline="central" alignment-baseline="central" class="actor" style="text-anchor: middle; font-size: 14px;"><tspan x="675" dy="0">BaristaService</tspan></text></g><g><rect x="800" y="630" fill="#eaeaea" stroke="#666" width="150" height="65" rx="3" ry="3" class="actor"></rect><text x="875" y="662.5" dominant-baseline="central" alignment-baseline="central" class="actor" style="text-anchor: middle; font-size: 14px;"><tspan x="875" dy="0">Broker</tspan></text></g></svg>